<svg xmlns="http://www.w3.org/2000/svg" viewBox="0 0 2858 1276" width="2858" height="1276">
	<style>
		tspan { white-space:pre }
		.shp0 { fill: #323232 } 
	</style>
	<g id="Constellation right" style="opacity: 0.102">
		<path id="Ellipse 1" class="shp0" d="M1717,314.5c0,4.69 3.81,8.5 8.5,8.5c4.69,0 8.5,-3.81 8.5,-8.5c0,-4.69 -3.81,-8.5 -8.5,-8.5c-4.69,0 -8.5,3.81 -8.5,8.5z" />
		<path id="Ellipse 1 copy" class="shp0" d="M1445,625.5c0,4.69 3.81,8.5 8.5,8.5c4.69,0 8.5,-3.81 8.5,-8.5c0,-4.69 -3.81,-8.5 -8.5,-8.5c-4.69,0 -8.5,3.81 -8.5,8.5z" />
		<path id="Ellipse 1 copy 2" class="shp0" d="M1823,793.5c0,4.69 3.81,8.5 8.5,8.5c4.69,0 8.5,-3.81 8.5,-8.5c0,-4.69 -3.81,-8.5 -8.5,-8.5c-4.69,0 -8.5,3.81 -8.5,8.5z" />
		<path id="Ellipse 1 copy 3" class="shp0" d="M2033,479.5c0,4.69 3.81,8.5 8.5,8.5c4.69,0 8.5,-3.81 8.5,-8.5c0,-4.69 -3.81,-8.5 -8.5,-8.5c-4.69,0 -8.5,3.81 -8.5,8.5z" />
		<path id="Ellipse 1 copy 4" class="shp0" d="M2222,1123.5c0,4.69 3.81,8.5 8.5,8.5c4.69,0 8.5,-3.81 8.5,-8.5c0,-4.69 -3.81,-8.5 -8.5,-8.5c-4.69,0 -8.5,3.81 -8.5,8.5z" />
		<path id="Ellipse 1 copy 5" class="shp0" d="M2121,1266.5c0,4.69 3.81,8.5 8.5,8.5c4.69,0 8.5,-3.81 8.5,-8.5c0,-4.69 -3.81,-8.5 -8.5,-8.5c-4.69,0 -8.5,3.81 -8.5,8.5z" />
		<path id="Ellipse 1 copy 6" class="shp0" d="M2231,744.5c0,4.69 3.81,8.5 8.5,8.5c4.69,0 8.5,-3.81 8.5,-8.5c0,-4.69 -3.81,-8.5 -8.5,-8.5c-4.69,0 -8.5,3.81 -8.5,8.5z" />
		<path id="Ellipse 1 copy 7" class="shp0" d="M2520,322.5c0,4.69 3.81,8.5 8.5,8.5c4.69,0 8.5,-3.81 8.5,-8.5c0,-4.69 -3.81,-8.5 -8.5,-8.5c-4.69,0 -8.5,3.81 -8.5,8.5z" />
		<path id="Ellipse 1 copy 8" class="shp0" d="M959,736.5c0,4.69 3.81,8.5 8.5,8.5c4.69,0 8.5,-3.81 8.5,-8.5c0,-4.69 -3.81,-8.5 -8.5,-8.5c-4.69,0 -8.5,3.81 -8.5,8.5z" />
		<path id="Ellipse 1 copy 9" class="shp0" d="M1121,297.5c0,4.69 3.81,8.5 8.5,8.5c4.69,0 8.5,-3.81 8.5,-8.5c0,-4.69 -3.81,-8.5 -8.5,-8.5c-4.69,0 -8.5,3.81 -8.5,8.5z" />
		<path id="Ellipse 1 copy 10" class="shp0" d="M1322,1022.5c0,4.69 3.81,8.5 8.5,8.5c4.69,0 8.5,-3.81 8.5,-8.5c0,-4.69 -3.81,-8.5 -8.5,-8.5c-4.69,0 -8.5,3.81 -8.5,8.5z" />
		<path id="Ellipse 1 copy 11" class="shp0" d="M622,1071.5c0,4.69 3.81,8.5 8.5,8.5c4.69,0 8.5,-3.81 8.5,-8.5c0,-4.69 -3.81,-8.5 -8.5,-8.5c-4.69,0 -8.5,3.81 -8.5,8.5z" />
		<path id="Ellipse 1 copy 12" class="shp0" d="M265,761.5c0,4.69 3.81,8.5 8.5,8.5c4.69,0 8.5,-3.81 8.5,-8.5c0,-4.69 -3.81,-8.5 -8.5,-8.5c-4.69,0 -8.5,3.81 -8.5,8.5z" />
		<path id="Ellipse 1 copy 13" class="shp0" d="M574,496.5c0,4.69 3.81,8.5 8.5,8.5c4.69,0 8.5,-3.81 8.5,-8.5c0,-4.69 -3.81,-8.5 -8.5,-8.5c-4.69,0 -8.5,3.81 -8.5,8.5z" />
		<path id="Ellipse 1 copy 14" class="shp0" d="M342,513.5c0,4.69 3.81,8.5 8.5,8.5c4.69,0 8.5,-3.81 8.5,-8.5c0,-4.69 -3.81,-8.5 -8.5,-8.5c-4.69,0 -8.5,3.81 -8.5,8.5z" />
		<path id="Ellipse 1 copy 15" class="shp0" d="M614,218.5c0,4.69 3.81,8.5 8.5,8.5c4.69,0 8.5,-3.81 8.5,-8.5c0,-4.69 -3.81,-8.5 -8.5,-8.5c-4.69,0 -8.5,3.81 -8.5,8.5z" />
		<path id="Ellipse 1 copy 16" class="shp0" d="M203,235.5c0,4.69 3.81,8.5 8.5,8.5c4.69,0 8.5,-3.81 8.5,-8.5c0,-4.69 -3.81,-8.5 -8.5,-8.5c-4.69,0 -8.5,3.81 -8.5,8.5z" />
		<path id="Ellipse 1 copy 17" class="shp0" d="M0,736.5c0,4.69 3.81,8.5 8.5,8.5c4.69,0 8.5,-3.81 8.5,-8.5c0,-4.69 -3.81,-8.5 -8.5,-8.5c-4.69,0 -8.5,3.81 -8.5,8.5z" />
		<path id="Ellipse 1 copy 19" class="shp0" d="M55,45.5c0,4.69 3.81,8.5 8.5,8.5c4.69,0 8.5,-3.81 8.5,-8.5c0,-4.69 -3.81,-8.5 -8.5,-8.5c-4.69,0 -8.5,3.81 -8.5,8.5z" />
		<path id="Ellipse 1 copy 20" class="shp0" d="M942,8.5c0,4.69 3.81,8.5 8.5,8.5c4.69,0 8.5,-3.81 8.5,-8.5c0,-4.69 -3.81,-8.5 -8.5,-8.5c-4.69,0 -8.5,3.81 -8.5,8.5z" />
		<path id="Shape 1" class="shp0" d="M212.21,239.61l1.58,-1.22l-154,-200l-1.58,1.22z" />
		<path id="Shape 2" class="shp0" d="M350.11,514.45l1.79,-0.89l-138,-276l-1.79,0.89z" />
		<path id="Shape 3" class="shp0" d="M584.08,498l-0.16,-1.99l-232,19l0.16,1.99z" />
		<path id="Shape 4" class="shp0" d="M272.05,761.7l1.91,0.6l78,-248l-1.91,-0.6z" />
		<path id="Shape 5" class="shp0" d="M8.1,736.01l-0.2,1.99l265,26l0.2,-1.99z" />
		<path id="Shape 6" class="shp0" d="M629.34,1073.76l1.31,-1.51l-358,-311l-1.31,1.51z" />
		<path id="Shape 7" class="shp0" d="M967.7,738.71l-1.41,-1.42l-336,333l1.41,1.42z" />
		<path id="Shape 8" class="shp0" d="M1330.38,1022.79l1.24,-1.57l-362,-285l-1.24,1.57z" />
		<path id="Shape 9" class="shp0" d="M1130.94,296.35l-1.87,-0.7l-164,440l1.87,0.7z" />
		<path id="Shape 10" class="shp0" d="M623.99,219.13l-1.98,-0.26l-37,279l1.98,0.26z" />
		<path id="Shape 11" class="shp0" d="M950.85,8.47l-1.7,1.06l181,291l1.7,-1.06z" />
		<path id="Shape 12" class="shp0" d="M2231.82,1122.58l-1.63,-1.16l-102,144l1.63,1.16z" />
		<path id="Shape 13" class="shp0" d="M1831.64,791.23l-1.28,1.54l399,332l1.28,-1.54z" />
		<path id="Shape 14" class="shp0" d="M2240.12,744.99l-0.24,-1.99l-409,49l0.24,1.99z" />
		<path id="Shape 15" class="shp0" d="M2239.2,746.6l1.6,-1.2l-199,-265l-1.6,1.2z" />
		<path id="Shape 16" class="shp0" d="M2041.54,481.89l0.93,-1.77l-318,-166l-0.93,1.77z" />
		<path id="Shape 17" class="shp0" d="M1725.75,315.66l-1.5,-1.32l-273,311l1.5,1.32z" />
		<path id="Shape 18" class="shp0" d="M2531.31,322.95l-0.61,-1.9l-489,157l0.61,1.9z" />
		<path id="Shape 19" class="shp0" d="M2531.82,322.57l-1.65,-1.13l-290,421l1.65,1.13z" />
		<path id="Shape 20" class="shp0" d="M2856.63,453.93l0.74,-1.86l-327,-130l-0.74,1.86z" />
	</g>
</svg>