<svg xmlns="http://www.w3.org/2000/svg" viewBox="0 0 1340 1081" width="1340" height="1081">
	<style>
		tspan { white-space:pre }
		.shp0 { fill: #323232 } 
	</style>
	<g id="Constellation left" style="opacity: 0.102">
		<path id="Ellipse 1 copy 8" class="shp0" d="M959.88,343.5c0,4.69 3.81,8.5 8.5,8.5c4.69,0 8.5,-3.81 8.5,-8.5c0,-4.69 -3.81,-8.5 -8.5,-8.5c-4.69,0 -8.5,3.81 -8.5,8.5z" />
		<path id="Ellipse 1 copy 9" class="shp0" d="M1121.84,782.5c0,4.69 3.81,8.5 8.5,8.5c4.69,0 8.5,-3.81 8.5,-8.5c0,-4.69 -3.81,-8.5 -8.5,-8.5c-4.69,0 -8.5,3.81 -8.5,8.5z" />
		<path id="Ellipse 1 copy 10" class="shp0" d="M1322.81,57.5c0,4.69 3.81,8.5 8.5,8.5c4.69,0 8.5,-3.81 8.5,-8.5c0,-4.69 -3.81,-8.5 -8.5,-8.5c-4.69,0 -8.5,3.81 -8.5,8.5z" />
		<path id="Ellipse 1 copy 11" class="shp0" d="M622.91,8.5c0,4.69 3.81,8.5 8.5,8.5c4.69,0 8.5,-3.81 8.5,-8.5c0,-4.69 -3.81,-8.5 -8.5,-8.5c-4.69,0 -8.5,3.81 -8.5,8.5z" />
		<path id="Ellipse 1 copy 12" class="shp0" d="M265.97,318.5c0,4.69 3.81,8.5 8.5,8.5c4.69,0 8.5,-3.81 8.5,-8.5c0,-4.69 -3.81,-8.5 -8.5,-8.5c-4.69,0 -8.5,3.81 -8.5,8.5z" />
		<path id="Ellipse 1 copy 13" class="shp0" d="M574.94,583.5c0,4.69 3.81,8.5 8.5,8.5c4.69,0 8.5,-3.81 8.5,-8.5c0,-4.69 -3.81,-8.5 -8.5,-8.5c-4.69,0 -8.5,3.81 -8.5,8.5z" />
		<path id="Ellipse 1 copy 14" class="shp0" d="M342.97,566.5c0,4.69 3.8,8.5 8.48,8.5c4.69,0 8.48,-3.81 8.48,-8.5c0,-4.69 -3.8,-8.5 -8.48,-8.5c-4.69,0 -8.48,3.81 -8.48,8.5z" />
		<path id="Ellipse 1 copy 15" class="shp0" d="M614.91,861.5c0,4.69 3.81,8.5 8.5,8.5c4.69,0 8.5,-3.81 8.5,-8.5c0,-4.69 -3.81,-8.5 -8.5,-8.5c-4.69,0 -8.5,3.81 -8.5,8.5z" />
		<path id="Ellipse 1 copy 16" class="shp0" d="M203.97,844.5c0,4.69 3.81,8.5 8.5,8.5c4.69,0 8.5,-3.81 8.5,-8.5c0,-4.69 -3.81,-8.5 -8.5,-8.5c-4.69,0 -8.5,3.81 -8.5,8.5z" />
		<path id="Ellipse 1 copy 17" class="shp0" d="M1,343.5c0,4.69 3.81,8.5 8.5,8.5c4.69,0 8.5,-3.81 8.5,-8.5c0,-4.69 -3.81,-8.5 -8.5,-8.5c-4.69,0 -8.5,3.81 -8.5,8.5z" />
		<path id="Ellipse 1 copy 19" class="shp0" d="M56,1034.5c0,4.69 3.81,8.5 8.5,8.5c4.69,0 8.5,-3.81 8.5,-8.5c0,-4.69 -3.81,-8.5 -8.5,-8.5c-4.69,0 -8.5,3.81 -8.5,8.5z" />
		<path id="Ellipse 1 copy 20" class="shp0" d="M942.87,1071.5c0,4.69 3.81,8.5 8.5,8.5c4.69,0 8.5,-3.81 8.5,-8.5c0,-4.69 -3.81,-8.5 -8.5,-8.5c-4.69,0 -8.5,3.81 -8.5,8.5z" />
		<path id="Shape 1" class="shp0" d="M59.2,1040.39l1.58,1.22l153.98,-200l-1.58,-1.22z" />
		<path id="Shape 2" class="shp0" d="M213.08,841.55l1.79,0.89l137.98,-276l-1.79,-0.89z" />
		<path id="Shape 3" class="shp0" d="M353.04,563l-0.16,1.99l231.97,19l0.16,-1.99z" />
		<path id="Shape 4" class="shp0" d="M351,566.3l1.91,-0.6l-77.99,-248l-1.91,0.6z" />
		<path id="Shape 5" class="shp0" d="M274.06,318l-0.2,-1.99l-264.97,26l0.2,1.99z" />
		<path id="Shape 6" class="shp0" d="M272.31,317.25l1.31,1.51l357.95,-311l-1.31,-1.51z" />
		<path id="Shape 7" class="shp0" d="M632.62,8.29l-1.41,1.42l335.96,333l1.41,-1.42z" />
		<path id="Shape 8" class="shp0" d="M969.25,342.21l1.24,1.57l361.95,-285l-1.24,-1.57z" />
		<path id="Shape 9" class="shp0" d="M967.81,343.65l-1.87,0.7l163.98,440l1.87,-0.7z" />
		<path id="Shape 10" class="shp0" d="M587.91,581.87l-1.98,0.26l37,279l1.98,-0.26z" />
		<path id="Shape 11" class="shp0" d="M1132.7,780.53l-1.7,-1.06l-180.98,291l1.7,1.06z" />
	</g>
</svg>